{"title":"JAZBAA(2015) Desi Scr x264 Mp3 {VikkyMaxx}","uid":12547660,"size":740161411,"categoryP":"video","categoryS":"movies","magnet":"?xt=urn:btih:71872c11e338c3890f415be6140461d8a2f49e40&amp;dn=JAZBAA%282015%29+Desi+Scr+x264+Mp3+%7BVikkyMaxx%7D&amp;tr=udp%3A%2F%2Ftracker.leechers-paradise.org%3A6969&amp;tr=udp%3A%2F%2Fzer0day.ch%3A1337&amp;tr=udp%3A%2F%2Fopen.demonii.com%3A1337&amp;tr=udp%3A%2F%2Ftracker.coppersurfer.tk%3A6969&amp;tr=udp%3A%2F%2Fexodus.desync.com%3A6969","seeders":0,"leechers":1,"uploader":"shailendramaxx","files":20,"time":1444500516,"description":"VikkyMaxx Presents :-\r\n\r\n\r\nIMDB :- http://www.imdb.com/title/tt4323504\r\n\r\nRatings :-  5.7/10\r\n\r\nPlot :- Prominent criminal lawyer Anuradha Verma's daughter is abducted, and the abductor informs her that the only way she will ever see her daughter again is by defending a convicted felon, charged with brutally raping and murdering a young woman. The abductor watches Anuradha's every move, forces her to comply and orchestrates a perfect crime by outwitting the police. Anuradha's friend Yohan, a suspended policeman with disregard for old rules, is too tangled up in his own mess to help her. The prosecutor is a longtime rival who is determined to defeat Anuradha professionally. Anuradha has only seven days before the trial ends and race against time and corruption to save her daughter.\r\n\r\nCast :- Aishwarya Rai Bachchan, Irrfan Khan, Shabana Azmi\r\n\r\nGeneral:- \r\n\r\nComplete name :JAZBAA(2015) Desi Scr x264 Mp3 {VikkyMaxx}\r\nFormat : Matroska \r\nFormat version : Version 2 \r\nFile size : 698 MiB \r\nDuration : 1h 52mn \r\nOverall bit rate : 866 Kbps \r\nEncoded date : UTC 2015-10-10 11:26:11 \r\nWriting application : mkvmerge v7.7.0 ('Six Voices') 32bit built on Feb 28 2015 23:23:00 \r\nWriting library : libebml v1.3.1 + libmatroska v1.4.2 \r\nDURATION : 01:52:38.365000000 \r\nNUMBER_OF_FRAMES : 194039 \r\nNUMBER_OF_BYTES : 378468450 \r\nSTATISTICS_WRITING_APP : mkvmerge v7.7.0 ('Six Voices') 32bit built on Feb 28 2015 23:23:00 \r\nSTATISTICS_WRITING_DATE_UTC : 2015-10-10 11:26:11 \r\nSTATISTICS_TAGS : BPS DURATION NUMBER_OF_FRAMES NUMBER_OF_BYTES \r\nSource : M2TV ( A Big Thanks)\r\n\r\nVideo:-\r\n \r\nID : 1 \r\nFormat : AVC \r\nFormat/Info : Advanced Video Codec \r\nFormat profile :    \r\nFormat settings, CABAC : Yes \r\nFormat settings, ReFrames : 4 frames \r\nCodec ID : V_MPEG4/ISO/AVC \r\nDuration : 1h 52mn \r\nBit rate : 416 Kbps \r\nWidth : 640 pixels \r\nHeight : 272 pixels \r\nDisplay aspect ratio : 2.35:1 \r\nFrame rate mode : Constant \r\nFrame rate : 25.000 fps \r\nColor space : YUV \r\nChroma subsampling : 4:2:0 \r\nBit depth : 8 bits \r\nScan type : Progressive \r\nBits/(Pixel*Frame) : 0.096 \r\nStream size : 323 MiB (46%) \r\nWriting library : x264 core 146 r2538 121396c \r\nEncoding settings : cabac=1 / ref=3 / deblock=1:0:0\r\nDefault : Yes \r\nForced : No \r\n\r\nAudio:-\r\n \r\nID : 2 \r\nFormat : AC-3 \r\nFormat/Info : Audio Coding 3 \r\nMode extension : CM (complete main) \r\nFormat settings, Endianness : Big \r\nCodec ID : A_AC3 \r\nDuration : 1h 52mn \r\nBit rate mode : Constant \r\nBit rate : 448 Kbps \r\nChannel(s) : 2 channels \r\nChannel positions : Front: L R \r\nSampling rate : 44.1 KHz \r\nCompression mode : Lossy \r\nStream size : 361 MiB (52%) \r\nDefault : Yes \r\nForced : No \r\n\r\nScreens :-\r\n\r\n \nhttp://i.imgur.com/5AS0xwc.png\r\n \nhttp://i.imgur.com/TSCedfX.png\r\n \nhttp://i.imgur.com/ZJayb04.png\r\n \nhttp://i.imgur.com/DjEWXVI.png\r\n \nhttp://i.imgur.com/r2ym5u3.png\r\n \nhttp://i.imgur.com/PlQsy81.png\r\n \nhttp://i.imgur.com/geXEspt.png\r\n \nhttp://i.imgur.com/xstfRjh.png\r\n \nhttp://i.imgur.com/7IxaGMb.png\r\n \nhttp://i.imgur.com/mje3Lmw.png\r\n\r\n\r\n\r\n                ********** PLEASE SEED AS LONG AS YOU CAN AFTER DOWNLOAD **********\r\n                       \r\n                              ***** THANK YOU REGARDS - VikkyMaxx *****","torrent":{"xt":"urn:btih:71872c11e338c3890f415be6140461d8a2f49e40","amp;dn":"JAZBAA%282015%29+Desi+Scr+x264+Mp3+%7BVikkyMaxx%7D","amp;tr":["udp%3A%2F%2Ftracker.leechers-paradise.org%3A6969","udp%3A%2F%2Fzer0day.ch%3A1337","udp%3A%2F%2Fopen.demonii.com%3A1337","udp%3A%2F%2Ftracker.coppersurfer.tk%3A6969","udp%3A%2F%2Fexodus.desync.com%3A6969"],"infoHash":"71872c11e338c3890f415be6140461d8a2f49e40","infoHashBuffer":{"type":"Buffer","data":[113,135,44,17,227,56,195,137,15,65,91,230,20,4,97,216,162,244,158,64]},"announce":[],"urlList":[]}}